HIERARCHY
ROOT bottle4_body
{
	OFFSET 0.000000 0.000000 0.000000
	CHANNELS 6 Xposition Yposition Zposition Yrotation Xrotation Zrotation
	End Site
	{
		OFFSET 0.000000 0.000000 0.000000
	}
}
MOTION
Frames: 67
Frame Time: 0.008333334
0.479488 7.958093 4.737636 -96.895020 31.306720 25.854510 
0.411441 8.014672 4.738387 -96.096500 32.273090 25.790000 
0.348860 8.068580 4.736023 -94.388700 32.858250 25.400020 
0.290218 8.118104 4.732743 -92.125850 33.201070 24.466590 
0.236379 8.164597 4.729566 -89.090730 33.445940 23.356830 
0.189113 8.207367 4.723907 -85.582580 33.304460 21.704820 
0.149049 8.246204 4.716782 -81.539550 33.012130 19.866690 
0.117758 8.279160 4.707456 -77.024540 32.556640 17.666150 
0.095329 8.307227 4.693748 -71.927760 32.233090 15.568060 
0.079836 8.328767 4.675438 -66.979610 31.881420 12.986890 
0.071082 8.344981 4.650496 -62.216710 31.376630 10.493920 
0.069846 8.355932 4.618364 -57.277800 31.063340 8.052011 
0.071067 8.361586 4.580014 -52.905700 30.533380 5.624071 
0.074385 8.363387 4.536152 -49.149140 29.762380 3.464457 
0.077620 8.361574 4.489154 -46.279820 28.809710 1.583329 
0.080926 8.357441 4.439441 -44.201450 27.524770 0.317974 
0.083114 8.350914 4.390789 -43.032530 26.003580 -0.720032 
0.082462 8.343883 4.344895 -42.663360 24.291230 -1.079193 
0.075661 8.338274 4.303499 -43.100860 22.289860 -0.754395 
0.064455 8.333117 4.269733 -44.020390 20.124240 0.319095 
0.048698 8.328753 4.244427 -45.370730 18.439300 2.014038 
0.028739 8.325680 4.229378 -47.114900 17.200870 3.960402 
0.007504 8.321766 4.225560 -49.168120 16.497150 6.217238 
-0.015459 8.319631 4.230822 -51.538600 16.282330 8.555530 
-0.039393 8.317469 4.245598 -54.254210 16.506670 10.698630 
-0.061655 8.316327 4.266165 -57.031980 16.988430 12.891320 
-0.081520 8.316057 4.288509 -59.753300 17.415980 14.698490 
-0.099357 8.316971 4.313714 -62.283450 17.956110 16.305590 
-0.115796 8.318551 4.337844 -64.724060 18.407040 17.618460 
-0.130537 8.321830 4.359022 -66.394320 18.801820 18.629790 
-0.144470 8.326734 4.376544 -67.701170 19.070180 19.269320 
-0.158448 8.332385 4.390875 -68.281490 19.294070 19.732670 
-0.174128 8.338232 4.403582 -68.370150 19.664340 19.756250 
-0.189840 8.343579 4.413104 -67.622130 20.192740 19.474830 
-0.206551 8.348697 4.420972 -66.414180 20.818660 18.893240 
-0.223081 8.352695 4.426417 -64.722660 21.550940 17.910680 
-0.237355 8.356284 4.427482 -62.592130 22.302280 16.640690 
-0.247779 8.357607 4.423820 -59.973630 22.874890 14.987740 
-0.255480 8.355790 4.414349 -57.172090 23.376480 13.198390 
-0.258732 8.351173 4.400078 -54.082520 23.758750 11.328930 
-0.257453 8.344594 4.377893 -50.885590 23.778430 9.340923 
-0.252697 8.333841 4.350296 -47.564700 23.629210 7.437156 
-0.245974 8.320301 4.317243 -44.526820 23.245300 5.456440 
-0.236050 8.302756 4.281373 -41.493410 22.775680 3.795670 
-0.224244 8.282453 4.241849 -38.870510 22.346330 2.169524 
-0.212872 8.260468 4.201540 -37.266360 21.465510 0.599803 
-0.201334 8.237613 4.162616 -35.967040 20.352570 -0.520020 
-0.190999 8.214849 4.127667 -35.439580 18.936050 -1.113434 
-0.182132 8.193059 4.096745 -35.329190 17.515570 -1.221008 
-0.176801 8.171896 4.073197 -36.079410 15.927510 -0.829071 
-0.173591 8.152932 4.056712 -37.260040 14.481650 0.226127 
-0.173567 8.136008 4.047524 -39.090700 13.282430 1.597681 
-0.177178 8.122037 4.047161 -41.394070 11.875830 3.754829 
-0.179685 8.107561 4.053897 -43.637940 11.770900 6.001471 
-0.183242 8.095232 4.067195 -46.241910 11.721260 8.508674 
-0.186578 8.083346 4.085343 -49.247040 11.926760 10.944290 
-0.187187 8.073228 4.105155 -52.165620 12.304330 13.604830 
-0.184685 8.062360 4.127406 -55.132230 12.747940 15.787310 
-0.181135 8.052169 4.150000 -58.237210 13.035110 17.986350 
-0.175212 8.044500 4.172002 -61.001890 13.231880 19.869570 
-0.168691 8.036439 4.190725 -63.377320 13.591810 21.516040 
-0.162080 8.028831 4.206741 -65.274080 13.845450 22.800790 
-0.156588 8.021992 4.219603 -66.646030 13.976260 23.812000 
-0.152678 8.014593 4.229856 -67.258180 14.251440 24.565930 
-0.151202 8.006619 4.235467 -67.349610 14.529520 24.891040 
-0.151771 7.998224 4.238005 -66.865360 14.784000 24.847540 
-0.153602 7.987919 4.236466 -65.826290 14.917720 24.311290 
